<svg xmlns="http://www.w3.org/2000/svg" id="_레이어_2" viewBox="0 0 501.32 324.9"><defs><style>.cls-1{fill:#fff}.cls-2{fill:none}.cls-3{fill:#501f64}.cls-4{fill:#606060}</style></defs><g id="Layer_1"><path d="M11.31 252.32H58.2l10.14 10.55-4 12.38-35.55 20.87-3.08 10.69H0l10.69-8.63 5.97-28.38h16.81v7.3h5.4l10.49-6.07v-8.64H18.3l-6.99-10.07z" class="cls-3"/><path d="M110.74 252.62h-47.5l9.36 9.52-11 34.7 9.67 9.67h36.4l12.54-44.42-9.46-9.46Zm-18.51 44.11H80.71l8.84-34.34h11.52l-8.84 34.34Z" class="cls-1"/><path d="M141.8 265.68h3.72l13.14-13.13h54.86l9.1 9.1h-53.37l-14.5 14.5v5.14l18.92 25.29h-30.43l4.32-5.14v-5.96l-8.85-10.7-5.96 21.8h-18.3l12.13-44.62-9.41-9.41h29.56l-4.93 13.13z" class="cls-1"/><path d="m170.5 293.48 9.57 13.03h24.13l9.15-9.16h-23.96l3.08-13.06h16.46l2.53-11.31h-15.42l1.85-6.85h-19.98l-7.41 27.35zM454.39 293.48l9.57 13.03h24.13l9.15-9.16h-23.96l3.09-13.06h16.45l2.53-11.31h-15.42l1.85-6.85H461.8l-7.41 27.35zM220.18 252.32h49.69l7.26 7.44v15.47l-15.9 10.26 12.54 19.75h-21.38l-8.43-15.94-5.76 15.94h-19.75l9.46-37.43h16.05v9.66h5.14l11.51-7.4v-9.25h-32.08l-8.35-8.5z" class="cls-1"/><path d="M297.7 251.42h55.11L345 261.3h-39.07l-8.23-9.88zM304.28 268.7h16.66l4.32 5.55h17.68l-5.14 10.49h-19.95l-5.34 21.39h-23.24l10.07-11.31 4.94-26.12z" class="cls-3"/><path d="M361.83 251.42h30.67l9.19 9.36-12.96 44.63H372.9l4.32-17.48h-5.35l-12.65 12.65v4.83h-26.15l48.67-39.08v-5.03h-8.46l-3.67 4.97-25.3 19.33 9.74-23.07 7.78-11.11zM450.32 260.42l-9.46-9.46h-41.55l9.46 9.46h41.55zM406.37 266.85h19.2l-9.6 22.62v6.17h25.78l-10.15 10.15h-23.17l-9.12-9.12v-7.75l7.06-22.07zM501.32 260.46l-9.46-9.46h-41.54l9.46 9.46h41.54z" class="cls-1"/><path d="M113.94 313.14c.8 0 1.56.15 2.27.46.71.31 1.33.72 1.85 1.24s.94 1.14 1.25 1.84c.31.71.46 1.46.46 2.25s-.15 1.56-.46 2.26c-.31.7-.72 1.32-1.25 1.84-.53.53-1.14.94-1.85 1.25-.71.31-1.47.46-2.27.46s-1.56-.15-2.27-.46a5.81 5.81 0 0 1-1.85-1.25c-.53-.53-.94-1.14-1.25-1.84-.31-.7-.46-1.46-.46-2.26s.15-1.54.46-2.25c.31-.71.72-1.32 1.25-1.84s1.14-.94 1.85-1.24c.71-.31 1.46-.46 2.27-.46Zm0 9.37c.49 0 .94-.09 1.37-.28s.8-.44 1.12-.76c.32-.32.57-.69.75-1.12s.28-.9.28-1.4-.09-.95-.28-1.38-.44-.81-.75-1.13c-.32-.32-.69-.58-1.12-.77s-.89-.28-1.37-.28-.94.09-1.37.28c-.43.19-.81.44-1.13.77a3.544 3.544 0 0 0-1.04 2.51 3.523 3.523 0 0 0 1.04 2.52c.32.32.7.57 1.13.76.43.19.89.28 1.37.28ZM130.29 313.12h2.58l-6.46 11.76-6.48-11.76h2.62l3.86 7.02 3.88-7.02ZM136.63 313.12l4.23.02v2.23h-4.11v2.41h4v2.24h-4v2.48h4.11v2.24h-6.41v-11.63h2.18ZM153.9 324.75h-2.45l-2.31-3.77c-.28.08-.59.12-.92.12-.23.01-.46.01-.69 0s-.46 0-.69 0h-.56v3.66h-2.29v-11.63h4.23c.52 0 1.01.12 1.47.35s.86.54 1.2.91c.34.37.61.8.81 1.27.2.48.3.96.3 1.46s-.1.96-.29 1.42-.45.88-.78 1.27l2.98 4.95Zm-7.62-5.9h1.87c.21 0 .42-.05.61-.15.19-.1.36-.24.49-.41.14-.17.24-.36.32-.57s.12-.42.12-.62-.04-.41-.13-.62-.2-.4-.35-.56c-.15-.16-.32-.29-.51-.39-.19-.1-.4-.15-.61-.15h-1.82v3.48ZM166.74 313.12h2.58l-6.46 11.76-1.85-3.37-1.84 3.37-6.48-11.76h2.62l3.86 7.02.53-.99c-.54-1-1.1-2.01-1.66-3.03-.56-1.02-1.11-2.02-1.66-3.01H159l2.01 3.65 2.04-3.65h2.58l-3.33 6.05c.1.19.19.35.27.48.08.12.18.28.29.48l3.88-7ZM176.29 322.76h-5.54c-.17.32-.35.65-.55.99-.2.35-.38.68-.54 1h-2.6l6.48-11.76 6.46 11.76h-2.6l-1.1-1.99Zm-1.22-2.24-1.53-2.79-1.55 2.79h3.08ZM183.88 315.49v9.27h-2.29v-9.27h-3.03v-2.24h8.33v2.24h-3.01ZM195.88 316.51a3.83 3.83 0 0 0-1.2-.84c-.45-.2-.9-.3-1.37-.3-.5 0-.97.09-1.4.27-.44.18-.82.43-1.14.76-.32.32-.58.7-.76 1.14-.18.44-.27.9-.27 1.4s.09.97.27 1.4c.18.44.43.82.76 1.14.32.32.7.58 1.14.76.44.18.9.27 1.4.27.46 0 .92-.1 1.36-.3s.84-.48 1.21-.84l1.31 1.89c-.55.49-1.17.86-1.84 1.11-.67.25-1.36.38-2.07.38-.81 0-1.56-.15-2.26-.46a6.04 6.04 0 0 1-1.85-1.25c-.53-.53-.95-1.14-1.26-1.84-.31-.7-.46-1.46-.46-2.26s.15-1.54.46-2.25c.31-.71.72-1.33 1.25-1.85.53-.53 1.14-.94 1.84-1.25.7-.31 1.46-.46 2.26-.46.71 0 1.41.13 2.08.38.67.25 1.29.63 1.84 1.11l-1.31 1.89ZM205.74 317.87v-4.74h2.29v11.63h-2.29v-4.64h-4.03v4.64h-2.29v-11.63h2.29v4.74h4.03ZM219.18 324.75h-2.29v-11.63h4.22c.52 0 1.01.12 1.47.35s.86.54 1.21.91.62.8.82 1.27a3.741 3.741 0 0 1 0 2.93c-.2.47-.47.89-.8 1.26s-.74.67-1.2.89a3.4 3.4 0 0 1-1.48.36c-.23.01-.45.01-.68 0s-.45 0-.68 0h-.58v3.66Zm0-5.9h1.88c.21 0 .42-.05.61-.15s.36-.24.49-.41c.14-.17.24-.36.32-.57.08-.21.12-.42.12-.62s-.04-.41-.13-.62c-.08-.21-.2-.4-.35-.56-.15-.16-.32-.29-.51-.39s-.39-.15-.61-.15h-1.83v3.48ZM237.07 324.75h-2.45l-2.31-3.77c-.28.08-.59.12-.92.12-.23.01-.46.01-.69 0s-.46 0-.69 0h-.56v3.66h-2.29v-11.63h4.23c.52 0 1.01.12 1.47.35s.86.54 1.2.91.61.8.81 1.27c.2.48.3.96.3 1.46s-.1.96-.29 1.42c-.19.46-.45.88-.78 1.27l2.97 4.95Zm-7.62-5.9h1.87c.22 0 .42-.05.61-.15.19-.1.36-.24.49-.41.14-.17.24-.36.32-.57.08-.21.12-.42.12-.62s-.04-.41-.13-.62-.2-.4-.35-.56c-.15-.16-.32-.29-.51-.39-.19-.1-.4-.15-.61-.15h-1.82v3.48ZM243.43 313.14c.8 0 1.56.15 2.27.46.71.31 1.33.72 1.85 1.24.53.52.94 1.14 1.25 1.84.31.71.46 1.46.46 2.25s-.15 1.56-.46 2.26c-.31.7-.72 1.32-1.25 1.84-.53.53-1.14.94-1.85 1.25-.71.31-1.46.46-2.27.46s-1.56-.15-2.27-.46c-.71-.31-1.33-.72-1.85-1.25s-.94-1.14-1.25-1.84c-.31-.7-.46-1.46-.46-2.26s.15-1.54.46-2.25.72-1.32 1.25-1.84 1.14-.94 1.85-1.24c.71-.31 1.46-.46 2.27-.46Zm0 9.37c.49 0 .94-.09 1.37-.28s.8-.44 1.12-.76c.32-.32.57-.69.75-1.12s.28-.9.28-1.4-.09-.95-.28-1.38-.44-.81-.75-1.13c-.32-.32-.69-.58-1.12-.77s-.89-.28-1.37-.28-.94.09-1.37.28-.81.44-1.13.77a3.544 3.544 0 0 0-1.04 2.51 3.523 3.523 0 0 0 1.04 2.52c.32.32.7.57 1.13.76s.89.28 1.37.28ZM251.7 313.12h6.36v2.24H254v2.4h3.83v2.28H254v4.71h-2.29v-11.63ZM262.81 313.12l4.23.02v2.23h-4.11v2.41h4v2.24h-4v2.48h4.11v2.24h-6.41v-11.63h2.18ZM271.61 316.51c0 .33.11.6.32.82.21.22.48.32.78.32h1.22c.44 0 .88.1 1.31.29.43.19.82.45 1.16.77s.62.7.83 1.13c.21.43.31.88.31 1.36s-.1.91-.29 1.33a3.841 3.841 0 0 1-1.95 1.92c-.44.2-.89.3-1.37.3h-4.37v-2.24h4.08c.51 0 .89-.12 1.13-.37.24-.25.39-.56.45-.93-.06-.34-.2-.64-.42-.91-.23-.26-.59-.39-1.11-.39H273.01c-.12 0-.28 0-.48-.03h.02c-.46-.02-.89-.12-1.28-.31a3.39 3.39 0 0 1-1.03-.73 3.59 3.59 0 0 1-.69-1.06c-.17-.4-.25-.83-.25-1.28s.09-.9.27-1.31c.18-.41.42-.76.73-1.07s.67-.55 1.08-.72c.41-.18.85-.26 1.32-.26h4.45l.02 2.24h-4.47c-.29 0-.55.11-.77.32-.22.21-.33.48-.33.8ZM281.54 316.51c0 .33.11.6.32.82.21.22.48.32.78.32h1.22c.44 0 .88.1 1.31.29.43.19.82.45 1.16.77s.62.7.83 1.13c.21.43.31.88.31 1.36s-.1.91-.29 1.33a3.841 3.841 0 0 1-1.95 1.92c-.44.2-.89.3-1.37.3h-4.37v-2.24h4.08c.51 0 .89-.12 1.13-.37.24-.25.39-.56.45-.93-.06-.34-.2-.64-.42-.91-.23-.26-.59-.39-1.11-.39H282.94c-.12 0-.28 0-.48-.03h.02c-.46-.02-.89-.12-1.28-.31a3.39 3.39 0 0 1-1.03-.73 3.59 3.59 0 0 1-.69-1.06c-.17-.4-.25-.83-.25-1.28s.09-.9.27-1.31c.18-.41.42-.76.73-1.07s.67-.55 1.08-.72c.41-.18.85-.26 1.32-.26h4.45l.02 2.24h-4.47c-.29 0-.55.11-.77.32-.22.21-.33.48-.33.8ZM292.25 324.75h-2.29v-11.63h2.29v11.63ZM300.65 313.14c.8 0 1.56.15 2.27.46.71.31 1.33.72 1.85 1.24.53.52.94 1.14 1.25 1.84.31.71.46 1.46.46 2.25s-.15 1.56-.46 2.26c-.31.7-.72 1.32-1.25 1.84-.53.53-1.14.94-1.85 1.25-.71.31-1.46.46-2.27.46s-1.56-.15-2.27-.46c-.71-.31-1.33-.72-1.85-1.25s-.94-1.14-1.25-1.84c-.31-.7-.46-1.46-.46-2.26s.15-1.54.46-2.25.72-1.32 1.25-1.84 1.14-.94 1.85-1.24c.71-.31 1.46-.46 2.27-.46Zm0 9.37c.49 0 .94-.09 1.37-.28s.8-.44 1.12-.76c.32-.32.57-.69.75-1.12s.28-.9.28-1.4-.09-.95-.28-1.38-.44-.81-.75-1.13c-.32-.32-.69-.58-1.12-.77s-.89-.28-1.37-.28-.94.09-1.37.28-.81.44-1.13.77a3.544 3.544 0 0 0-1.04 2.51 3.523 3.523 0 0 0 1.04 2.52c.32.32.7.57 1.13.76s.89.28 1.37.28ZM319.06 324.9c-.67-.58-1.36-1.18-2.08-1.81-.72-.63-1.41-1.23-2.07-1.81-.66-.57-1.28-1.11-1.86-1.62s-1.2-1.07-1.86-1.66v6.75h-2.29v-11.8l6.1 5.35 1.77 1.55v-6.73h2.29v11.78ZM330.11 322.76h-5.54c-.17.32-.35.65-.55.99-.2.35-.38.68-.54 1h-2.6l6.48-11.76 6.46 11.76h-2.6l-1.11-1.99Zm-1.22-2.24-1.53-2.79-1.55 2.79h3.08ZM337.61 313.14v9.37h3.62v2.24h-5.92v-11.61h2.29ZM355.83 316.51a3.83 3.83 0 0 0-1.2-.84c-.45-.2-.9-.3-1.37-.3-.5 0-.97.09-1.4.27-.44.18-.82.43-1.14.76s-.58.7-.76 1.14c-.18.44-.27.9-.27 1.4s.09.97.27 1.4c.18.44.43.82.76 1.14.32.32.7.58 1.14.76.44.18.9.27 1.4.27.46 0 .92-.1 1.36-.3.44-.2.84-.48 1.21-.84l1.31 1.89a5.916 5.916 0 0 1-3.91 1.49c-.8 0-1.56-.15-2.26-.46a6.04 6.04 0 0 1-1.85-1.25c-.53-.53-.95-1.14-1.26-1.84-.31-.7-.46-1.46-.46-2.26s.15-1.54.46-2.25c.31-.71.72-1.33 1.25-1.85s1.14-.94 1.84-1.25c.7-.31 1.46-.46 2.26-.46.71 0 1.41.13 2.08.38.67.25 1.29.63 1.84 1.11l-1.31 1.89ZM361.66 313.14v9.37h3.62v2.24h-5.92v-11.61h2.29ZM373.9 313.23h2.26v6.56c0 .68-.13 1.32-.39 1.92s-.62 1.13-1.07 1.58-.98.81-1.59 1.07c-.61.26-1.25.39-1.93.39s-1.32-.13-1.93-.39c-.61-.26-1.14-.62-1.59-1.07-.45-.45-.81-.98-1.07-1.58s-.39-1.24-.39-1.92v-6.56h2.3v6.56c0 .37.07.72.21 1.05.14.33.34.62.58.87s.54.44.86.59c.33.14.67.21 1.03.21s.72-.07 1.05-.21c.33-.14.61-.34.86-.59.24-.25.44-.54.58-.87.15-.33.22-.68.22-1.05v-6.56ZM387.45 316.67c0 .44-.08.87-.25 1.27-.17.4-.39.75-.65 1.05.26.29.48.65.65 1.06.17.41.25.83.25 1.26 0 .49-.09.94-.28 1.36s-.44.79-.75 1.1c-.31.31-.68.56-1.1.73-.42.18-.87.26-1.35.26h-4.34v-11.53h4.34c.48 0 .93.09 1.35.26.42.18.79.42 1.1.73.31.31.56.68.75 1.1s.28.87.28 1.34Zm-5.56 1.2h2.07c.33 0 .61-.12.84-.35s.35-.52.35-.84-.12-.61-.35-.84-.51-.35-.84-.35h-2.07v2.4Zm2.07 4.64c.33 0 .61-.12.84-.35s.35-.52.35-.86-.12-.61-.35-.84c-.23-.23-.51-.35-.84-.35h-2.07v2.4h2.07Z" class="cls-4"/><path d="M213.94 38.99c-3.89-1.39-7.82-2.68-11.6-4.31-1.99-.86-3.38-.53-4.99.73-7.85 6.11-14.98 12.94-21.21 20.71-5.92 7.38-6.01 9.35-.53 17.21 8.31 11.92 20.87 13.16 31.1 2.84 8.33-8.4 11.37-19.01 11.93-28.89 0-7.76.26-6.51-4.7-8.28ZM181.1 30.4c5.26-5.01 5.9-3.24-.97-8.27-1.33-.98-2.11-.64-2.8.7-1.76 3.43-3.75 6.76-5.02 10.42-.89 2.55-1.77 5.13-1.92 8.07 1.03-.28 1.36-.97 1.83-1.51 2.84-3.25 5.74-6.43 8.88-9.41ZM314.42 140.78c-4.04-.78-7.53 1.83-7.45 5.9.07 3.16-1.15 5.47-3.38 7.46-.96.85-2.04 1.62-2.81 2.62-.99 1.28-3.29 2.66-1.95 4.26 1.18 1.41 3.37.04 4.72-.93 4.62-3.31 9.07-6.87 12.77-11.25.89-1.05 1.58-2.27 1.54-3.13-.06-2.93-1.09-4.48-3.44-4.94ZM240.29 16.36c-6.19.92-12.19 2.48-18.01 4.79a73.102 73.102 0 0 0-12.43 6.4c9.3 3.53 18.75 5.54 28.43 6.58 1.84.2 2.41-.76 2.39-2.45-.06-4.42.62-8.77 1.7-13.04.53-2.08.05-2.6-2.09-2.28Z" class="cls-2"/><path d="M350.61 56.76c-.51-.93-1.1-2.09-2.31-2.1-.67 0-1.3.27-1.9.55-5.94 2.78-11.49 6.36-17.59 8.78-17.67 7-35.25-1.64-51.56-8.25-5.88-2.38-11.88-3.06-18.1-1.94-6.51 1.17-6.5 1.2-7.78-5.47-.03-.18-.06-.36-.11-.54-.37-1.29.01-1.93 1.46-1.8 9.74.83 19.45.4 29.15-.64 17.33-1.85 33.98-6.14 49.56-14.08 4.32-2.2 8.69-4.41 12.1-8.06 1.39-1.49 1.5-2.76-.05-4.23-3-2.85-5.95-5.74-8.82-8.72-1.34-1.39-2.29-1.21-3.7-.03-2.53 2.13-5.15 4.17-7.91 5.97-21.27 13.89-44.98 18.86-70 18.96-2.07 0-2.5-1.08-2.35-2.81.97-10.87 4.12-20.84 11.8-28.98.67-.71 1.89-1.38 1.51-2.44-.45-1.27-1.89-.89-2.92-.86-8.36.22-16.69.75-24.94 2.3-14.94 2.8-28.56 8.81-41.32 16.92-1.06.68-1.97 1.58-3.47.74-7.62-4.24-15.61-7.83-22.77-12.88-2.28-1.61-4.52-3.26-6.78-4.89 2.27 4.42 5.5 7.99 8.74 11.54 1.33 1.45 1.72 2.44.52 4.21-7.47 11-10.86 23.2-10.29 36.48.06 1.51-.29 2.87-.95 4.24-11.56 23.8-14.19 48.6-8.25 74.34.29 1.26.29 3.67 1.46 3.42 1.6-.35.7-2.51.5-3.83-3.06-20.14.46-39.13 9.84-57.11.44-.84.57-2.22 1.77-2.21 1.01.01 1.15 1.29 1.59 2.06 9.89 17.25 28.82 20.75 44.27 8.21 6.38-5.18 10.61-11.86 13.78-19.32 2.54-5.99 3.66-12.31 4.22-18.74.17-1.93.9-2.51 2.84-2.08 2.59.58 5.24.94 7.89 1.27 1.49.19 2.28.87 2.63 2.34.7 2.95 1.46 5.91 3 8.56.73 1.25.73 2.15.13 2.92 2.63 3.15 4.96 6.1 6.13 10.42.12-.6.4-1.1 1.16-1.25 1.19-.23 1.82 1.09 2.39 2 3.02 4.9 6.8 9.08 11.35 12.62 4.83 3.76 9.98 6.16 16.28 5 4.04-.75 6.94 1.3 9.34 4.12 1.9 2.23 3.55 4.68 5.23 7.09 2.31 3.32 4.7 6.58 7.55 9.46 2.48 2.51 3.48 5.54 3.59 9.2-.54 5.2-1.99 10.43-3.94 15.49-4.11 10.7-7.73 21.67-14.55 31.09-2.66 3.68-3.42 4.96-4.71 4.63-.14 2.33-.41 4.87-.74 7.3.13 0 .26.03.41.08 1.04.35.84 1.51.95 2.4.16 1.26.4 2.48 1.91 1.03 4.99-4.8 10.93-8.38 16.25-12.75 7.1-5.83 14.08-11.81 20.93-17.92 5.76-5.14 11.51-10.43 15.18-17.34a73.532 73.532 0 0 0 3.04-6.46c3.52-8.5 5.46-17.47 6.85-26.53 1.47-9.53 2.46-19.14 2.68-28.78.1-4.43.01-8.7-2.18-12.69ZM170.39 41.31c.14-2.94 1.03-5.52 1.92-8.07 1.27-3.66 3.26-6.98 5.02-10.42.69-1.34 1.47-1.68 2.8-.7 6.87 5.03 6.22 3.27.97 8.27-3.14 2.99-6.04 6.16-8.88 9.41-.46.53-.79 1.22-1.83 1.51Zm48.25 5.96c-.57 9.87-3.6 20.48-11.93 28.89-10.23 10.32-22.79 9.09-31.1-2.84-5.48-7.86-5.39-9.83.53-17.21 6.23-7.77 13.36-14.6 21.21-20.71 1.61-1.25 2.99-1.58 4.99-.73 3.79 1.63 7.71 2.92 11.6 4.31 4.97 1.77 4.71.53 4.7 8.28Zm23.73-28.63c-1.09 4.27-1.77 8.62-1.7 13.04.02 1.69-.55 2.65-2.39 2.45-9.68-1.04-19.13-3.05-28.43-6.58 4-2.56 8.1-4.68 12.43-6.4 5.82-2.32 11.82-3.88 18.01-4.79 2.13-.32 2.61.2 2.09 2.28Zm73.94 130.2c-3.7 4.38-8.14 7.93-12.77 11.25-1.35.97-3.54 2.34-4.72.93-1.34-1.6.97-2.97 1.95-4.26.77-1 1.85-1.77 2.81-2.62 2.23-1.99 3.45-4.31 3.38-7.46-.09-4.06 3.41-6.68 7.45-5.9 2.35.45 3.38 2.01 3.44 4.94.04.86-.65 2.07-1.54 3.13Z" class="cls-1"/><path d="M280.9 165.55c-9.3-6.4-18.55-12.88-27.8-19.35-1.89-1.32-3.54-2.94-5-4.72-3.42-4.15-2.37-8.78 2.46-11.08 5.94-2.83 6.33-4.51 2.15-9.46-.5-.59-1.05-1.21-.63-1.94.5-.87 1.32-.25 1.97-.09 5.95 1.37 11.61 3.41 16.75 6.8.92.6 2.12 1.8 3.2.77 1.19-1.15.01-2.5-.66-3.44-4.4-6.14-9.38-11.64-17.25-13.18-2.51-.49-2.93-1.79-2.44-3.89.1-.45.28-.88.4-1.32q1.28-4.35 5.76-4.17c.64.03 1.29.04 1.93-.04 2.65-.33 3.19-1.49 1.64-3.66-2.76-3.88-6.31-6.94-10.36-9.34-2.55-1.51-3.61-3.29-2.98-6.33.71-3.41.9-6.91 1.42-10.36.08-.53.05-1.18.16-1.75-1.17-4.32 6.52-16.42-6.13-10.42-.3.38-.73.73-1.32 1.08-3.66 2.13-7.07 4.63-10.29 7.38-9.04 7.7-16.25 16.84-20.19 28.09-1.4 3.98-3.61 6.41-7.24 7.94-7.62 3.21-15.23 6.44-22.88 9.57-4.12 1.69-4.78 3.14-3.15 7.42 1.15 2.99 2.96 5.7 3.53 8.94.94 5.37-.16 7.39-5.32 9.15-.43.15-.88.27-1.33.35-2.66.49-3.83 2.35-4.31 4.77-.55 2.78.25 5.32 1.79 7.58 2.19 3.24 4.92 5.94 8.47 7.71 1.89.95 3.8 1.83 5.84 2.44 2.01.59 4.08.74 6.17.8-5.3.8-10.23-.31-14.97-2.6-2.27-1.09-4.05-2.86-6.16-4.14-1.88-1.14-3.89-1.66-5.99-.43-2.06 1.21-2.12 3.19-1.73 5.1 1.1 5.4-1.3 9.14-5.24 12.44-2.99 2.5-5.23 5.65-6.53 9.39-.56 1.62-.12 2.32 1.68 1.79 1.5-.44 3-.88 4.52-1.23 22.77-5.12 45.42-3.66 68.03 1.21 8.54 1.84 16.61 5.37 25.3 6.64 10.47 1.52 19.29-1.12 25.86-9.81.77-1.02 1.65-1.98 2.51-2.93.58-.64 1.15-1.53 2.06-1.48 1.81-2.42 6.9-6.79.74-7.3-.91-.23-2.09-1.28-4.42-2.88Z" class="cls-3"/></g></svg>