<svg xmlns="http://www.w3.org/2000/svg" width="600" height="600"><path fill="#F7A026" d="m287.441-.203 2.902-.022C360.202-.623 429.015 16.69 484 62l2.762 2.188C503.569 77.614 519.896 92.928 533 110q1.503 1.893 3.008 3.785C570.877 158.001 591.003 210.355 598 266l.317 2.477c8.582 78.456-16.604 157.201-65.263 218.58-13.41 16.627-28.94 33.108-46.054 45.943q-1.774 1.383-3.547 2.77C473.401 543.552 462.85 550.387 452 557l-2.414 1.496c-64.211 39.344-145.961 48.319-218.554 31.539C209.93 584.902 189.501 577.548 170 568l-2.556-1.24C132.866 549.806 99.871 524.562 75 495l-1.4-1.66C62.168 479.706 51.957 465.387 43 450l-1.249-2.138C2.487 380.09-7.846 298.462 11.584 222.744c12.47-46.762 35.753-90.72 68.943-126.084a161 161 0 0 0 5.785-6.597C94.748 80.354 104.923 71.925 115 64l3.043-2.422C165.265 24.327 226.898.097 287.441-.203"/><path fill="#48B094" d="m287.441-.203 2.902-.022C360.202-.623 429.015 16.69 484 62l2.762 2.188C503.569 77.614 519.896 92.928 533 110q1.503 1.893 3.008 3.785C570.877 158.001 591.003 210.355 598 266l.317 2.477c8.582 78.456-16.604 157.201-65.263 218.58-13.41 16.627-28.94 33.108-46.054 45.943q-1.774 1.383-3.547 2.77C473.401 543.552 462.85 550.387 452 557l-2.414 1.496c-64.211 39.344-145.961 48.319-218.554 31.539C209.93 584.902 189.501 577.548 170 568l-2.556-1.24C132.866 549.806 99.871 524.562 75 495l-1.4-1.66C62.168 479.706 51.957 465.387 43 450l-1.249-2.138C2.487 380.09-7.846 298.462 11.584 222.744c12.47-46.762 35.753-90.72 68.943-126.084a161 161 0 0 0 5.785-6.597C94.748 80.354 104.923 71.925 115 64l3.043-2.422C165.265 24.327 226.898.097 287.441-.203M199 81l-2.192 1.055C187.962 86.31 179.404 90.916 171 96l-2.45 1.465a1105 1105 0 0 0-12.163 7.445 419 419 0 0 1-6.117 3.711C132.78 119.231 116.434 133.785 104 150l-2.035 2.582c-4.99 5.61-4.99 5.61-6.965 12.418h-2c-1.26 1.613-1.26 1.613-2.46 3.727l-1.43 2.378-1.485 2.52q-1.447 2.427-2.898 4.852l-1.407 2.361c-1.122 1.838-2.316 3.633-3.523 5.416-5.414 8.273-8.148 18.367-11.367 27.668a352 352 0 0 1-2.922 8.094l-.748 1.993q-.764 2-1.563 3.986c-1.85 4.674-2.934 9.169-3.697 14.13-.845 5.219-1.831 10.307-3.125 15.438-5.778 26.713-6.319 66.766 2 92.75 1.246 4.083 2.181 8.184 3.06 12.357 1.338 6.363 2.609 12.316 5.55 18.162C69.11 385.37 70.482 390.231 72 395h2l.125 3.375c1.641 12.516 14.355 25.566 22.02 35.27 2.802 3.557 5.55 7.157 8.304 10.752Q106.221 446.7 108 449l2.176 2.89L112 454h2l.332 1.802c.745 2.451 1.6 3.536 3.363 5.37l1.659 1.751 1.771 1.827q1.799 1.887 3.594 3.777l1.738 1.824c1.801 1.925 3.491 3.927 5.168 5.962 4.207 4.887 9.345 8.69 14.375 12.687q1.76 1.487 3.5 3c12.798 11.013 25.053 21.123 40.809 27.43 2.63 1.056 4.99 2.297 7.414 3.765 3.237 2.127 3.237 2.127 7.277 1.805v2c10.277 4.31 20.783 7.343 31.507 10.307 4.572 1.271 9.124 2.608 13.68 3.931 5.077 1.375 10.01 2.018 15.254 2.313l2.229.127c8.804.456 17.609.508 26.423.507 2.838.002 5.676.02 8.514.04A254 254 0 0 0 337 542q2.028-.24 4.058-.471c8.758-1.01 17.203-2.782 25.729-4.967 2.25-.571 4.506-1.111 6.764-1.652 8.342-2.074 15.641-4.707 23.117-8.968A74.4 74.4 0 0 1 408.5 520.5c11.462-4.233 21.38-9.806 30.523-17.91 2.313-2.013 4.622-3.826 7.075-5.652 6.166-4.756 11.516-10.337 16.964-15.875l3.202-3.229A2896 2896 0 0 0 474 470c-2.97-2.106-2.97-2.106-6.437-3.5-4.282-2.357-5.185-5.747-6.543-10.258-1.25-2.746-2.308-3.104-5.02-4.242-4.753-7.842-1.29-18.21.482-26.485.61-2.965 1.17-5.938 1.725-8.913l.646-3.448q.634-3.394 1.257-6.79c1.096-5.811 2.422-11.408 4.198-17.047 1.075-3.6 1.769-7.261 2.505-10.942 1.413-6.715 3.358-12.944 5.896-19.31 2.324-5.902 4.03-11.91 5.642-18.04.78-2.954 1.54-5.764 2.72-8.587 1.225-3.214 1.608-6.345 2.054-9.75l.508-3.801L484 316l4-1v2h2c-.859 10.822-2.007 21.35-4.59 31.91-.846 3.459-1.532 6.81-1.906 10.356-.45 3.335-1.004 4.872-2.504 7.734a203 203 0 0 0-1.375 7.25c-.934 5.072-2.11 9.451-4.66 13.953-1.41 2.625-2.229 5.367-3.117 8.203a135 135 0 0 1-2.04 5.75c-2.874 7.62-4.818 14.968-6.23 22.957C463 428 463 428 462 429c-.127 2.06-.176 4.124-.187 6.188l-.043 3.417c.237 3.5.865 6.17 2.23 9.395a210 210 0 0 0 5 4 78 78 0 0 1 2 5c1.146 1.897 1.146 1.897 3 3 4.455.495 7.922-.189 12-2 1.909-2.139 3.434-4.076 5-6.437l1.305-1.895c3.117-4.597 5.838-9.35 8.394-14.281 1.178-2.162 2.443-4.054 3.926-6.012 2.254-3.036 3.687-6.121 5.148-9.598 1.597-3.616 3.38-7.126 5.164-10.652 6.543-12.986 6.543-12.986 11.32-26.691.737-2.413 1.663-4.628 2.68-6.934 2.271-5.477 3.42-11.117 4.626-16.9.841-4.008 1.772-7.852 3.125-11.725 1.606-4.956 1.784-9.998 1.934-15.168.108-3.065.35-5.629 1.378-8.53 1.8-5.717 1.346-11.67 1.313-17.615l-.007-2.091c-.103-20.605-3.51-39.74-8.611-59.662a187 187 0 0 1-1.691-7.532c-2.056-9.991-5.506-18.786-9.91-27.977a385 385 0 0 1-3.192-6.921C509.932 183.887 501.213 167.094 488 153q-1.703-1.86-3.402-3.723c-6.694-7.298-13.529-14.352-20.848-21.027-3.889-3.56-7.696-7.159-11.375-10.937-7.966-8.106-7.966-8.106-17.375-14.313.28 5.83 1.27 11.138 2.875 16.75 3.516 12.673 4.018 26.194 5.125 39.25l-2.59.402-3.348.536-3.34.527c-2.626.253-2.626.253-3.722 1.535-1.6.276-3.205.52-4.812.75-7.643 1.333-14.317 4.48-21.333 7.688l-3.105 1.375-2.766 1.269c-7.128 2.193-12.954.658-19.734-1.77l-2.376-.819c-5.532-1.935-10.926-4.129-16.304-6.458-3.475-1.4-6.91-2.26-10.57-3.035q-.04 2.594-.062 5.188l-.036 2.917c.084 3.33.308 6.586.59 9.903.58 7.232.692 14.427.695 21.68l.038 3.76c.017 11.02-.847 25.592-8.225 34.552-6.624 4.002-13.622 4.04-21.059 2.273a72 72 0 0 1-15.398-6.851c-5.659-3.164-11.65-5.725-17.543-8.422l-2.402-1.16c-6.064-2.875-12.42-4.754-18.828-6.692a148 148 0 0 1-6.872-2.261c-3.093-.947-5.862-1.257-9.086-1.45-3.23-.199-5.73-.41-8.812-1.437-2.164-.095-4.33-.13-6.496-.133l-3.881-.004-2.02.007c-2.03.005-4.06 0-6.09-.007l-3.884.004-3.56.004c-2.556.107-4.642.376-7.069 1.129v2l-1.687.113c-4.78.412-8.837 1.244-13.27 3.067-2.215.89-4.453 1.605-6.73 2.32-3.445 1.139-6.258 2.514-9.313 4.5q-1.998 1.066-4 2.125c-12.437 6.9-24.019 15.769-34 25.875-.802.755-1.604 1.51-2.43 2.29-22.542 21.533-31.19 53.75-34.57 83.71h-2l-1-2h-2q.213-3.812.438-7.625l.119-2.16c.246-4.138.746-8.124 1.443-12.215a74 74 0 0 0 .063-4.375L100 308l-2 4c-.203-5.36.466-9.945 1.813-15.125l.501-2.09c.778-3.067 1.59-5.631 3.28-8.32 1.876-3.29 1.918-6.017 2.094-9.777l.199-3.801L106 270h2l.262-3.191c.955-10.255 3.003-19.197 6.738-28.809l.898-2.371c6.707-16.274 17.053-30.351 28.957-43.176 1.351-1.407 1.351-1.407 1.145-3.453h2c1.43-1.453 1.43-1.453 2.938-3.375C159.37 175.768 169.352 168.251 180 161l1.99-1.363q2.999-2.047 6.01-4.075l1.85-1.251A87.6 87.6 0 0 1 201 148v-2l2.438-.25c3.733-.786 6.686-2.1 10.12-3.703 3.315-1.421 6.706-2.385 10.18-3.336 2.271-.648 2.271-.648 4.301-1.73 2.01-1.006 3.838-1.542 6.024-2.043A76 76 0 0 0 241 133c2.017-.094 4.034-.184 6.052-.24 10.16-.294 20.005-1.536 30.028-3.182a367 367 0 0 1 18.971-2.626c12.94-1.436 25.378-4.168 38.009-7.284 3.808-.865 7.64-1.483 11.504-2.047 4.116-1.05 7.621-3.451 10.436-6.621v-3h2c3.535-6.861 6.226-13.154 6-21l-1-1q-.29-2.781-.562-5.562c-.963-5.527-2.2-8.89-6.438-12.622-7.029-4.255-15.116-6.635-23-8.816l-2.22-.631c-7.742-1.88-15.604-1.636-23.519-1.575-2.426.018-4.852.02-7.279.02-36.058.08-68.62 8.33-100.982 24.186"/><path fill="#F6D7AE" d="M430 212c8.209 2.522 8.209 2.522 11.688 4.625 2.756 1.639 5.15 2.007 8.312 2.375l1-4c12.364 13.663 22.2 27.432 30.089 44.101 1.278 2.665 2.622 5.296 3.968 7.927 1.939 4.055 3.193 7.572 3.576 12.07l.255 2.912.237 3.053.253 3.124c1.641 21.227 1.641 21.227-1.378 26.813-2.078.645-2.078.645-4 1l-.48 3.156c-1.648 10.312-4.179 19.965-7.52 29.844q-.777 2.343-1.55 4.688-1.5 4.532-3.02 9.058l-.708 2.118q-.736 2.176-1.498 4.342c-1.85 5.332-3.143 10.634-4.224 16.169-1.037 5.136-2.088 10.217-3.562 15.25-1.491 5.206-2.41 10.486-3.307 15.819-.821 4.883-1.783 9.713-2.818 14.556-2.286 10.75-2.286 10.75.687 21l1.977.828c2.742 1.589 2.827 2.977 3.648 5.985 1.628 4.573 3.267 6.182 7.625 8.312 1.57.658 3.15 1.295 4.75 1.875-4.943 5.943-10.24 11.457-15.687 16.938l-2.53 2.591c-5.107 5.139-10.352 9.573-16.312 13.696-2.436 1.75-4.628 3.634-6.846 5.65-8.747 7.136-20.023 11.35-30.36 15.71a120 120 0 0 0-6.456 3.028C384.962 532.08 373.777 535.16 362 538l-2.078.516c-11.014 2.689-22.201 3.438-33.481 4.234-2.437.203-2.437.203-4.774.76-3.44.632-6.84.71-10.327.763-1.108.02-1.108.02-2.238.038-25.01.343-44.875-1.413-65.204-17.381-2.04-2.074-2.36-3.152-2.898-5.93-1.984-1.284-1.984-1.284-4-2v-1l3.222-.076q5.991-.144 11.982-.296 2.58-.065 5.158-.125c8.363-.197 16.67-.41 24.996-1.273 5.533-.481 11.092-.525 16.642-.668 10.304-.313 20.589-.742 30.875-1.437 1.103-.066 2.207-.133 3.344-.2 9.037-.658 18.542-2.783 25.258-9.374 1.808-2.1 3.341-4.164 4.523-6.676 1-1.875 1-1.875 3.375-3.625 4.347-3.726 6.291-7.996 7.125-13.625-1.05-7.617-3.63-13.556-9.5-18.625l-1.71-1.863C356.22 453.56 348.991 448.404 340 447a187 187 0 0 0-7.465-.13l-2.224-.005q-3.624-.004-7.248.002l-5.055-.003q-5.29-.002-10.581.006-6.774.006-13.548-.004-5.217-.005-10.433 0-2.498 0-4.995-.002-3.494-.003-6.986.007l-2.075-.007c-3.599.016-6.884.344-10.39 1.136-2.208.134-4.418.223-6.629.281l-3.889.114-4.044.105c-8.322.221-16.589.533-24.88 1.282-9.821.838-19.575 1.282-27.796-4.981-6.301-6.44-9.716-15.468-12.762-23.801l-1.352-3.172c-5.726-14.14-4.992-28.578.352-42.828l1-2 2.264.214c9.09.788 18.12.945 27.236.911l2.249-.005c9.088-.022 18.17-.103 27.251-.495l2.38-.093c4.844-.254 9.425-1.037 14.165-2.046 4.392-.87 8.834-1.259 13.285-1.697 4.584-.49 8.728-1.504 13.17-2.789a202 202 0 0 1 7.625-1c4.838-.559 9.635-1.184 14.438-2 4.19-.684 8.346-1.127 12.578-1.43l3.074-.226a398 398 0 0 1 6.065-.383c6.391-.453 10.64-1.818 16.22-4.961h2l1.375 5.938.84 3.609a313 313 0 0 1 1.723 8.14c.909 4.2 2.515 7.991 4.18 11.942 1.167 3.137 1.53 6.054 1.882 9.371l1 1c.482 2.1.959 4.2 1.414 6.305 5.59 25.713 15.403 57.24 38.586 72.695a309 309 0 0 0 7 2l2 1c5.835.604 9.307-.03 14.137-3.406 2.51-2.147 4.357-4.442 6.21-7.168 1.271-1.865 2.63-3.67 4.024-5.446q1.253-1.645 2.504-3.293l2.367-3.05c4.21-7.03 1.681-17.165.383-24.824l-.498-2.978c-4.108-22.956-9.868-46.508-17.373-68.593-2.203-6.55-4.01-13.056-5.281-19.851-.452-2.284-1.002-4.516-1.598-6.766C407 330 407 330 407 326l-4 1-.443-1.697-1.995-7.615-.697-2.67-1.292-4.933c-.47-1.711-1.012-3.402-1.573-5.085-.836-12.026-.454-24.331 1.313-36.25l.356-2.467c.737-4.44 1.86-7.463 4.331-11.283.659-2.004 1.26-4.027 1.813-6.062 1.979-6.748 4.85-12.766 8.187-18.938h2l.313-2.375C416 225 416 225 419 223v5l8-1 .375-3c.577-4.089 1.575-8.009 2.625-12"/><path fill="#582907" d="m329 46 2.065.52c17.207 4.513 32.812 11.858 42.779 27.242 4.679 9.057 4.565 20.201 2.281 29.988-3.889 10.848-10.383 19.093-20.125 25.25-8.539 4.004-17.705 5.463-26.937 6.938l-2.305.378c-15.33 2.511-30.734 4.315-46.18 5.947-8.795.933-17.57 1.942-26.324 3.202l-2.415.333c-12.236 1.827-23.79 6.784-34.839 12.202l-1.791.867c-13.781 6.68-27.073 13.71-39.209 23.133l-1.9 1.442c-7.693 5.857-14.755 11.402-20.12 19.562-1.993 3.015-4.135 5.845-6.344 8.703-5.812 7.545-10.85 15.321-15.615 23.558-2.545 4.323-5.297 8.522-8.021 12.735 2.393-2.377 4.772-4.757 7.078-7.219 11.547-12.128 25.317-21.7 39.922-29.781l3.074-1.707c7.678-4.049 15.642-6.809 23.926-9.293l3.129-.941C234.7 189.805 269.83 203.004 301 215l3.45 1.316 3.238 1.246 3.261 1.254c1.872.727 3.73 1.492 5.559 2.32 3.001 1.04 5.51 1.13 8.68 1.114l3.167.016c2.8 0 2.8 0 4.645-2.266.324-2.146.324-2.146.303-4.646l.05-2.923.026-3.17.051-3.25c.054-3.441.094-6.882.132-10.323q.066-5.145.143-10.291.049-3.206.08-6.411l.041-2.952.03-2.586c.15-2.562.605-4.942 1.144-7.448q.207-2.428.316-4.863l.127-2.686.12-2.763.13-2.823q.159-3.432.307-6.865c5.304-3.084 5.304-3.084 8.411-2.71 2.563.703 4.887 1.57 7.32 2.636l2.685 1.166 2.772 1.22c6.154 2.69 12.318 5.314 18.564 7.784 3.909 1.572 7.742 3.32 11.584 5.049 2.9.93 3.9 1.01 6.664-.145a96 96 0 0 0 4.563-2.75c9.651-5.87 18.144-9.047 29.437-10.25l-.621-2.457-.817-3.356-.808-3.269c-1.763-9.16-1.936-18.364-1.942-27.668l-.037-3.285c-.01-5.692.116-10.642 2.225-15.965 2.313-2 2.313-2 5-3 8.54 1.095 15.158 6.713 21.598 12.031a135 135 0 0 0 6.402 4.906c7.485 5.595 13.864 11.612 19.414 19.13 2.155 2.626 4.7 4.177 7.586 5.933 3.752 3.552 7.12 7.362 10.438 11.313l1.463 1.741C514 163.312 514 163.312 514 169l2.266-1.277 2.984-1.66 2.953-1.653c5.056-2.55 9.202-2.68 14.797-2.41l2 2c-.101 2.937-1.131 4.16-3 6.438-4.271 3.648-9.216 7.562-15 7.562l4 11c4.709-1.695 4.709-1.695 7.5-3.625 5.395-2.12 10.771-1.604 16.5-1.375.337 3.619.291 5.52-1.617 8.668-2.67 2.612-5.14 4.044-8.508 5.644l-3.195 1.551C533 201 533 201 531 201q.932 2.409 1.875 4.813l1.055 2.707c1.058 2.657 1.058 2.657 3.07 5.48.527 1.98.527 1.98.938 4.188 1.166 5.622 3.054 10.71 5.535 15.882 2.026 4.717 2.709 9.64 3.527 14.68 1.493 8.796 1.493 8.796 3.688 17.438 2.981 10.148 2.498 20.973 2.497 31.461.002 2.385.02 4.77.04 7.154.039 10.818-.547 21.498-2.225 32.197l-1 1a105 105 0 0 0-.945 4.723c-2.083 11.199-4.398 22.218-7.617 33.152l-.85 2.89c-2.672 8.857-5.702 17.557-9.56 25.97a228 228 0 0 0-2.419 5.562c-2.563 6-5.576 11.785-8.537 17.597a783 783 0 0 0-2.062 4.08c-4.857 9.665-10.43 18.44-17.01 27.026l-2.11 2.758c-5.176 6.519-10.837 12.562-16.574 18.585-2.77 2.912-5.489 5.814-8.02 8.938-2.004 2.374-3.804 4.09-6.296 5.906a174 174 0 0 0-9.61 7.77c-10.205 8.827-21.137 16.078-32.83 22.77l-2.103 1.207-1.876 1.064c-1.759 1.034-1.759 1.034-3.581 3.002a245 245 0 0 1-4.762 2.023c-2.7 1.179-5.302 2.511-7.925 3.852-5.094 2.572-10.25 4.841-15.54 6.977-2.337.967-4.57 2.029-6.836 3.148-9.848 4.437-21.254 6.68-31.843 8.602q-2.077.395-4.125.921c-5.748 1.48-11.476 1.866-17.386 2.135-3.782.156-3.782.156-7.492.848-2.432.574-4.629.628-7.128.64l-3.037.019-3.27.003-3.394.01q-3.561.007-7.121.007c-3.6.002-7.198.02-10.797.04q-3.469.005-6.938.005l-3.22.022c-18.99-.057-18.99-.057-22.186-3.252a225 225 0 0 0-5.125-.625c-9.696-1.42-18.9-4.546-28.209-7.532-2.24-.708-4.485-1.38-6.744-2.027C198.31 541.822 183.334 532.58 169 523q-2.902-1.818-5.812-3.625c-4.21-2.672-8.15-5.555-12.04-8.672-2.834-2.246-5.768-4.345-8.714-6.441L141 503v-2l-1.809-.809c-2.237-1.216-3.535-2.395-5.254-4.253-2.95-3.052-6.061-5.723-9.375-8.375-7.378-5.968-13.546-12.338-19.374-19.817-1.977-2.48-4.025-4.879-6.11-7.269C81.294 439.991 65.344 414.493 56 389l-1.406-3.684A1048 1048 0 0 1 53 381l-.832-2.259c-6.947-19.65-8.055-39.737-9.542-60.355-.353-4.667-.851-9.214-1.716-13.82-1.25-6.758-1.21-13.46-1.16-20.316l.018-3.996c.123-12.03.293-23.128 5.232-34.254.608-2.104.608-2.104.938-4.062C47.253 235.523 49.132 229.272 51 223l.785-2.652.715-2.286.594-1.902C54 214 54 214 55.93 210.734c2.164-3.708 3.415-7.467 4.695-11.547C65.14 185.669 72.501 173.392 81 162l1.75-2.48c4.161-5.87 8.566-11.532 13.063-17.145l1.707-2.157 1.625-2.007 1.448-1.803C102 135 102 135 105 134c.693-1.32 1.356-2.656 2-4 1.629-1.78 1.629-1.78 3.563-3.574l2.148-2.009 2.289-2.105 2.354-2.18q2.304-2.132 4.615-4.257a382 382 0 0 0 4.746-4.469c11.123-10.478 23.958-18.914 37.241-26.375 5.395-3.036 10.58-6.287 15.732-9.719C187.48 70.16 195.546 65.956 204 62l2.648-1.273c4.49-2.096 8.988-3.53 13.75-4.88 2.822-.919 5.42-2.081 8.102-3.347 9.287-4.331 18.39-6.089 28.5-7.5l2.922-.52C281.906 41.05 307.387 40.535 329 46M199 81l-2.192 1.055C187.962 86.31 179.404 90.916 171 96l-2.45 1.465a1105 1105 0 0 0-12.163 7.445 419 419 0 0 1-6.117 3.711C132.78 119.231 116.434 133.785 104 150l-2.035 2.582c-4.99 5.61-4.99 5.61-6.965 12.418h-2c-1.26 1.613-1.26 1.613-2.46 3.727l-1.43 2.378-1.485 2.52q-1.447 2.427-2.898 4.852l-1.407 2.361c-1.122 1.838-2.316 3.633-3.523 5.416-5.414 8.273-8.148 18.367-11.367 27.668a352 352 0 0 1-2.922 8.094l-.748 1.993q-.763 2-1.563 3.986c-1.85 4.674-2.934 9.169-3.697 14.13-.845 5.219-1.831 10.307-3.125 15.438-5.778 26.713-6.319 66.766 2 92.75 1.246 4.083 2.181 8.184 3.06 12.357 1.338 6.363 2.609 12.316 5.55 18.162C69.11 385.37 70.482 390.231 72 395h2l.125 3.375c1.641 12.516 14.355 25.566 22.02 35.27 2.802 3.557 5.55 7.157 8.304 10.752Q106.221 446.7 108 449l2.176 2.89L112 454h2l.332 1.802c.745 2.451 1.6 3.536 3.363 5.37l1.659 1.751 1.771 1.827q1.799 1.887 3.594 3.777l1.738 1.824c1.801 1.925 3.491 3.927 5.168 5.962 4.207 4.887 9.345 8.69 14.375 12.687q1.76 1.487 3.5 3c12.798 11.013 25.053 21.123 40.809 27.43 2.63 1.056 4.99 2.297 7.414 3.765 3.237 2.127 3.237 2.127 7.277 1.805v2c10.277 4.31 20.783 7.343 31.507 10.307 4.572 1.271 9.124 2.608 13.68 3.931 5.077 1.375 10.01 2.018 15.254 2.313l2.229.127c8.804.456 17.609.508 26.423.507 2.838.002 5.676.02 8.514.04A254 254 0 0 0 337 542q2.028-.24 4.058-.471c8.758-1.01 17.203-2.782 25.729-4.967 2.25-.571 4.506-1.111 6.764-1.652 8.342-2.074 15.641-4.707 23.117-8.968A74.4 74.4 0 0 1 408.5 520.5c11.462-4.233 21.38-9.806 30.523-17.91 2.313-2.013 4.622-3.826 7.075-5.652 6.166-4.756 11.516-10.337 16.964-15.875l3.202-3.229q3.875-3.91 7.736-7.834c-2.97-2.106-2.97-2.106-6.437-3.5-4.282-2.357-5.185-5.747-6.543-10.258-1.25-2.746-2.308-3.104-5.02-4.242-4.753-7.842-1.29-18.21.482-26.485.61-2.965 1.17-5.938 1.725-8.913l.646-3.448q.634-3.394 1.257-6.79c1.096-5.811 2.422-11.408 4.198-17.047 1.075-3.6 1.769-7.261 2.505-10.942 1.413-6.715 3.358-12.944 5.896-19.31 2.324-5.902 4.03-11.91 5.642-18.04.78-2.954 1.54-5.764 2.72-8.587 1.225-3.214 1.608-6.345 2.054-9.75l.508-3.801L484 316l4-1v2h2c-.859 10.822-2.007 21.35-4.59 31.91-.846 3.459-1.532 6.81-1.906 10.356-.45 3.335-1.004 4.872-2.504 7.734a203 203 0 0 0-1.375 7.25c-.934 5.072-2.11 9.451-4.66 13.953-1.41 2.625-2.229 5.367-3.117 8.203a135 135 0 0 1-2.04 5.75c-2.874 7.62-4.818 14.968-6.23 22.957C463 428 463 428 462 429c-.127 2.06-.176 4.124-.187 6.188l-.043 3.417c.237 3.5.865 6.17 2.23 9.395a210 210 0 0 0 5 4 78 78 0 0 1 2 5c1.146 1.897 1.146 1.897 3 3 4.455.495 7.922-.189 12-2 1.909-2.139 3.434-4.076 5-6.437l1.305-1.895c3.117-4.597 5.838-9.35 8.394-14.281 1.178-2.162 2.443-4.054 3.926-6.012 2.254-3.036 3.687-6.121 5.148-9.598 1.597-3.616 3.38-7.126 5.164-10.652 6.543-12.986 6.543-12.986 11.32-26.691.737-2.413 1.663-4.628 2.68-6.934 2.271-5.477 3.42-11.117 4.626-16.9.841-4.008 1.772-7.852 3.125-11.725 1.606-4.956 1.784-9.998 1.934-15.168.108-3.065.35-5.629 1.378-8.53 1.8-5.717 1.346-11.67 1.313-17.615l-.007-2.091c-.103-20.605-3.51-39.74-8.611-59.662a187 187 0 0 1-1.691-7.532c-2.056-9.991-5.506-18.786-9.91-27.977a385 385 0 0 1-3.192-6.921C509.932 183.887 501.213 167.094 488 153q-1.703-1.86-3.402-3.723c-6.694-7.298-13.529-14.352-20.848-21.027-3.889-3.56-7.696-7.159-11.375-10.937-7.966-8.106-7.966-8.106-17.375-14.313.28 5.83 1.27 11.138 2.875 16.75 3.516 12.673 4.018 26.194 5.125 39.25l-2.59.402-3.348.536-3.34.527c-2.626.253-2.626.253-3.722 1.535-1.6.276-3.205.52-4.812.75-7.643 1.333-14.317 4.48-21.333 7.688l-3.105 1.375-2.766 1.269c-7.128 2.193-12.954.658-19.734-1.77l-2.376-.819c-5.532-1.935-10.926-4.129-16.304-6.458-3.475-1.4-6.91-2.26-10.57-3.035q-.04 2.594-.062 5.188l-.036 2.917c.084 3.33.308 6.586.59 9.903.58 7.232.692 14.427.695 21.68l.038 3.76c.017 11.02-.847 25.592-8.225 34.552-6.624 4.002-13.622 4.04-21.059 2.273a72 72 0 0 1-15.398-6.851c-5.659-3.164-11.65-5.725-17.543-8.422l-2.402-1.16c-6.064-2.875-12.42-4.754-18.828-6.692a148 148 0 0 1-6.872-2.261c-3.093-.947-5.862-1.257-9.086-1.45-3.23-.199-5.73-.41-8.812-1.437-2.164-.095-4.33-.13-6.496-.133l-3.881-.004-2.02.007c-2.03.005-4.06 0-6.09-.007l-3.884.004-3.56.004c-2.556.107-4.642.376-7.069 1.129v2l-1.687.113c-4.78.412-8.837 1.244-13.27 3.067-2.215.89-4.453 1.605-6.73 2.32-3.445 1.139-6.258 2.514-9.313 4.5q-1.998 1.066-4 2.125c-12.437 6.9-24.019 15.769-34 25.875-.802.755-1.604 1.51-2.43 2.29-22.542 21.533-31.19 53.75-34.57 83.71h-2l-1-2h-2q.213-3.812.438-7.625l.119-2.16c.246-4.138.746-8.124 1.443-12.215a74 74 0 0 0 .063-4.375L100 308l-2 4c-.203-5.36.466-9.945 1.813-15.125l.501-2.09c.778-3.067 1.59-5.631 3.28-8.32 1.876-3.29 1.918-6.017 2.094-9.777l.199-3.801L106 270h2l.262-3.191c.955-10.255 3.003-19.197 6.738-28.809l.898-2.371c6.707-16.274 17.053-30.351 28.957-43.176 1.351-1.407 1.351-1.407 1.145-3.453h2c1.43-1.453 1.43-1.453 2.938-3.375C159.37 175.768 169.352 168.251 180 161l1.99-1.363q2.999-2.047 6.01-4.075l1.85-1.251A87.6 87.6 0 0 1 201 148v-2l2.438-.25c3.733-.786 6.686-2.1 10.12-3.703 3.315-1.421 6.706-2.385 10.18-3.336 2.271-.648 2.271-.648 4.301-1.73 2.01-1.006 3.838-1.542 6.024-2.043A76 76 0 0 0 241 133c2.017-.094 4.034-.184 6.052-.24 10.16-.294 20.005-1.536 30.028-3.182a367 367 0 0 1 18.971-2.626c12.94-1.436 25.378-4.168 38.009-7.284 3.808-.865 7.64-1.483 11.504-2.047 4.116-1.05 7.621-3.451 10.436-6.621v-3h2c3.535-6.861 6.226-13.154 6-21l-1-1q-.29-2.781-.562-5.562c-.963-5.527-2.2-8.89-6.438-12.622-7.029-4.255-15.116-6.635-23-8.816l-2.22-.631c-7.742-1.88-15.604-1.636-23.519-1.575-2.426.018-4.852.02-7.279.02-36.058.08-68.62 8.33-100.982 24.186"/><path fill="#F6D6AD" d="M310.226 298.47q2.558-.033 5.116-.094c16.273-.366 16.273-.366 23.231 4.843 1.767 2.206 2.081 4.007 2.427 6.781l1.8.262c2.813.944 3.665 2.164 5.388 4.55l1.542 2.083c1.276 2.115 1.836 3.69 2.27 6.105l.379 2.043c.322 3.764.196 6.102-1.953 9.297-2.068 2.304-4.231 4.477-6.426 6.66a276 276 0 0 0-3.062 3.875c-6.194 7.133-16.005 7.55-24.92 8.29-4.297.285-8.599.48-12.901.669-11.957.537-23.851 1.271-35.742 2.666l-3.079.36c-4.542.563-9.008 1.254-13.487 2.195-4.384.912-8.653 1.369-13.121 1.57l-2.2.104q-2.2.098-4.4.183c-1.932.081-3.862.2-5.791.322-7.334.307-11.623-.55-17.297-5.234l-3.187-2.188c-5.488-5.487-8.104-11.21-8.25-19 .51-10.24 3.966-16.442 11.187-23.5 6.54-4.653 11.877-7.49 20.031-7.93.649-.035 1.297-.072 1.965-.11 6.295-.328 12.595-.448 18.896-.563 16.652-.293 16.652-.293 33.17-2.272 9.443-1.552 18.863-1.861 28.414-1.968"/><path fill="#A9561E" d="M347.477 301.535C349 303 349 303 351 306v3l1.688.125c3.569 1.35 5.11 3.84 7.312 6.875 1.587 4.893 1.948 9.953 1 15-2.21 3.79-4.78 7.018-8 10h-2c3.5 20.737 3.5 20.737 9 41l.708 2.15q1.934 5.861 3.913 11.71a227 227 0 0 1 3.004 9.64c1.182 4.057 2.726 7.894 4.34 11.797 1.168 3.052 2.106 6.133 3.035 9.265 4.068 13.462 10.939 25.621 18.715 37.293C395 466 395 466 395 468c5.898 2.294 10.663 3.43 17 3l2.375-.125c2.68-1.443 2.739-4.019 3.625-6.875 1.493-2.81 3.064-5.564 4.66-8.316 4.007-8.025 2.271-16-.035-24.247l-.672-2.498c-.9-3.314-1.828-6.582-2.96-9.827-1-3.136-1.629-6.157-2.177-9.401-.205-1.19-.41-2.38-.623-3.606l-.63-3.73c-1.91-11.29-4.095-22.297-7.831-33.136-4.189-12.812-7.393-26.723-5.732-40.239l2-3h3c2.115 7.57 4.082 15.093 5.563 22.813a140 140 0 0 0 5.117 19.164c7.93 23.08 14.442 47.796 17.099 72.064.195 1.727.448 3.448.71 5.166.832 8.685-4.406 14.344-9.489 20.793q-1.628 2.28-3.25 4.563c-2.276 2.986-4.628 5.301-7.75 7.437l-1.812 1.25c-3.498 1.2-6.493.985-10.188.75l-3-2-3.187-.687C384.252 473.92 375.326 457.37 369 447c-6.928-12.313-11.207-27.197-14-41l-.598-2.812q-.47-2.219-.937-4.438c-.312-1.764-.312-1.764-1.465-2.75q-.672-3.148-1.336-6.297c-.697-2.838-1.617-5.515-2.601-8.265-2.591-7.52-5.063-16.42-5.063-24.438l-1.814 1.054c-6.388 3.484-11.594 4.742-18.811 5.071q-3.028.201-6.055.414l-3.135.212c-5.332.417-10.63 1.075-15.935 1.749l-2.917.36c-10.896.493-10.896.493-20.333 4.14-3.372.452-6.743.815-10.127 1.162-4.016.436-7.924 1.024-11.877 1.865-4.68.968-9.225 1.412-13.996 1.598l-2.622.108c-8.151.293-16.308.433-24.465.497q-2.186.019-4.373.054c-26.073.383-26.073.383-33.494-5.709C171 367 171 367 171 364q3.563-.04 7.125-.062l2.016-.026c4.077-.02 7.855.362 11.859 1.088 8.705.707 16.557-1.056 25-3 7.553-1.554 14.992-2.307 22.687-2.57 4.694-.197 9.09-.937 13.683-1.909 4.637-.919 9.312-1.474 14.005-2.021l3.311-.388c11.535-1.269 23.099-1.866 34.689-2.378 18.69-.039 18.69-.039 34.645-7.718 2.066-2.285 4.019-4.64 5.98-7.016l1.617-1.605c2.788-2.812 3.727-4.977 3.883-8.832-.397-6.567-3.01-11.793-7.5-16.563l-3-1-.687-2.25c-2.056-4.307-4.961-6.15-9.313-7.75-5.228-.61-10.372-.635-15.63-.542-2.44.041-4.878.041-7.32.034-8.603.036-16.913.668-25.417 1.973-13.819 2.096-27.68 2.271-41.633 2.598-21.153.483-21.153.483-42.262 1.863l-2.58.224c-12.035 1.174-24.08 3.101-32.627 12.276L162 320h-2c-.62-4.963.533-8.015 3.254-12.04 6.088-6.836 14.68-9.453 23.53-10.339l3.923-.183 2.167-.11q2.287-.115 4.574-.22c4.026-.185 8.05-.398 12.075-.608l2.442-.125c7.33-.38 14.651-.845 21.972-1.375 1.039-.07 2.077-.142 3.146-.215a176 176 0 0 0 15.437-1.808c6.087-.977 12.073-1.41 18.23-1.602l3.23-.11c58.288-1.826 58.288-1.826 73.497 10.27"/><path fill="#F6D6AD" d="m284.467 454.855 3.752-.02 4-.003 4.157-.01q4.343-.009 8.684-.007c3.695 0 7.39-.014 11.085-.031q4.288-.015 8.576-.013c2.02-.001 4.04-.012 6.06-.023 9.411.023 15.608.358 22.969 6.69l2.797 2.37c4.173 3.728 4.173 3.728 5.453 5.192v2h2c1.794 15.39 1.794 15.39-2 22-2.938 2.25-2.938 2.25-6 4l-1.813 2c-6.158 5.63-16.385 8.555-24.562 9.312-3.054-.263-5.873-.734-8.875-1.312-11.75-2.024-23.633-1.212-35.457-.278-12.522.982-25.04 1.649-37.6 1.852q-2.616.051-5.229.144c-13.747.47-13.747.47-17.847-2.367-1.61-2.064-2.64-3.93-3.617-6.351l-1.352-2.535c-.88-3.343-.988-6.448-1.023-9.903l-.086-3.87c.722-5.781 3.826-9.355 7.961-13.255 2.06-1.977 3.706-3.725 5.375-6.062 3.942-4.406 8.486-6.984 14.372-7.856 3.632-.197 7.24-.265 10.878-.269q3.691-.05 7.383-.11l3.27-.014c3.246-.067 3.246-.067 6.52-.625 3.443-.466 6.697-.634 10.169-.646"/><path fill="#AA5821" d="m271.401 445.839 2.205-.015q3.596-.021 7.19-.027l5.027-.017q5.265-.015 10.53-.02c4.48-.006 8.96-.03 13.44-.058 3.46-.019 6.921-.024 10.382-.026q2.475-.004 4.951-.024c13.706-.102 24.3 1.548 34.82 11.118a150 150 0 0 1 3.495 3.59c1.68 1.822 1.68 1.822 4.246 3.952 4.074 4.735 5.965 10.168 6.813 16.313-1.137 7.673-4.583 11.717-10.5 16.375a99 99 0 0 0-3 5c-3.668 5.135-7.15 7.672-13 10l-2.504 1.043c-5.117 1.4-10.215 1.667-15.496 2.02l-3.55.251c-10.389.697-20.778 1.077-31.184 1.344l-3.579.096-3.113.072c-2.873.14-5.68.385-8.538.681-7.094.666-14.175.638-21.294.626l-4.317.003q-4.485.002-8.97-.006-5.76-.006-11.518.004-4.44.005-8.879 0-2.126 0-4.25.002c-1.968.003-3.935-.002-5.902-.007l-3.392-.002C209 518 209 518 208 517c-1.327-.3-2.662-.564-4-.813-6.224-1.357-12.465-3.17-17-7.875-2.498-4.136-2.884-7.552-3-12.312h3l1.75 2.312c2.745 3.279 5.285 4.436 9.25 5.688l2.309.78c12.123 3.42 24.71 2.628 37.191 2.532l7.466-.025c14.833-.08 29.515-.579 44.296-1.834 11.39-.964 22.867-1.311 34.097 1.11 6.227 1.031 11.322.225 17.203-1.876l1.92-.646C349.23 501.713 353.64 499.669 358 494l2.125-.875c2.156-1.052 2.156-1.052 3.125-3.875 1.438-5.916.9-12.211.75-18.25h-2a488 488 0 0 1-4-5 126 126 0 0 0-5.375-4.75l-2.773-2.36c-4.722-3.13-9.662-3.015-15.205-3.02l-3.753-.009-4.015.006-4.161-.003q-4.351-.002-8.703.006-5.554.006-11.108-.004a3958 3958 0 0 0-8.589 0q-2.048 0-4.094-.002c-1.914-.003-3.828.002-5.741.007l-3.29.002c-3.252.075-3.252.075-6.678.627-3.468.493-6.744.627-10.245.63l-3.922.009-4.18-.006q-2.164 0-4.328.003-4.515.002-9.03-.006a3826 3826 0 0 0-11.584.004q-4.458.005-8.917 0-2.138 0-4.274.002-2.976.002-5.952-.007l-3.422-.002C206 457 206 457 204 456v-4c4.367-2.067 8.683-2.616 13.437-3.063l2.555-.251c9.618-.866 19.265-1.111 28.914-1.344l3.746-.096 3.344-.072c2.894-.086 2.894-.086 5.23-.675 3.427-.617 6.691-.642 10.175-.66"/><path fill="#F5D6AD" d="M412.867 414.758c5.036 2.933 8.088 6.224 9.813 11.738q.63 2.464 1.195 4.942l.64 2.486c2.685 10.92.836 19.127-4.39 28.889l-1.027 2.021c-1.429 2.691-2.606 4.82-5.125 6.592-6.012 1.75-11.37.72-16.875-1.98-3.883-2.676-5.872-6.374-8.098-10.446l-1.523-2.715a417 417 0 0 1-3.028-5.578c-1.356-2.534-2.77-5.026-4.199-7.52-2.744-4.95-4.74-9.431-4.25-15.187 8-13.925 22.294-17.871 36.867-13.242"/><path fill="#A9561F" d="M484 315h4v2h2c1.081 12.085-1.934 23.487-4.457 35.221a83 83 0 0 0-1.078 7.29c-.425 3.188-1.02 4.733-2.465 7.489a203 203 0 0 0-1.375 7.25c-.934 5.072-2.11 9.451-4.66 13.953-1.41 2.625-2.229 5.367-3.117 8.203a135 135 0 0 1-2.04 5.75c-2.874 7.62-4.818 14.968-6.23 22.957C464 428 464 428 463 429c-.127 2.06-.176 4.124-.187 6.188l-.043 3.417c.237 3.5.865 6.17 2.23 9.395a210 210 0 0 0 5 4c1.188 2.625 1.188 2.625 2 5 1.862 2.3 1.862 2.3 4.813 2.188A47 47 0 0 0 485 458l-1.102 1.434-1.523 2.003c-.73.958-.73.958-1.477 1.934-1.068 1.48-2.114 2.979-3.074 4.531-4.328 6.907-9.694 12.484-15.449 18.223l-2.852 2.938-2.75 2.757-2.486 2.509L452 496l-4-1 25-25-9-5c-2.175-2.755-3.12-5.297-4.437-8.562-1.515-3.332-2.886-5.028-5.563-7.438-3.416-6.831-.015-16.495 1.482-23.485.61-2.965 1.17-5.938 1.725-8.913l.646-3.448q.634-3.394 1.257-6.79c1.096-5.811 2.422-11.408 4.198-17.047 1.075-3.6 1.769-7.261 2.505-10.942 1.413-6.715 3.358-12.944 5.896-19.31 2.324-5.902 4.03-11.91 5.642-18.04.78-2.956 1.54-5.766 2.723-8.591 1.216-3.195 1.567-6.297 1.988-9.684.835-6.647.835-6.647 1.938-7.75"/><path fill="#F5D5AD" d="m480.313 407.625 2.3.026c7.743.204 13.646 1.763 19.387 7.349 3.835 4.33 3.835 4.33 5 7-.3 3.839-1.586 6.229-3.812 9.313-1.946 2.791-3.647 5.47-5.063 8.562-2.202 4.638-5.256 8.607-8.32 12.707A125 125 0 0 0 486 458c-4.054 1.75-7.6 2.574-12 2-2.625-1.969-3.785-3.428-4.937-6.5-.918-2.72-.918-2.72-3.625-4.5-2.962-2.43-2.959-3.29-3.438-7a137 137 0 0 1-.187-6.5l-.043-3.344c.233-3.201.981-5.23 2.23-8.156.7-3.338 1.323-6.683 1.926-10.04C467 411 467 411 469.086 409.126c3.77-1.455 7.244-1.575 11.226-1.5"/><path fill="#FEA18A" d="M296 306c3.438 1.688 3.438 1.688 6 4 .875 2.75.875 2.75 1 5l1.828.297c8.234 1.54 8.234 1.54 11.172 5.703 1.304 4.28 1.832 8.582 1 13-1.751 2.646-3.445 4.007-6 6h-2l-.187 1.75c-1.552 4.295-5.248 5.951-9.125 8-4.453 1.51-7.024 1.862-11.688 1.25-2.312-2.312-2.312-2.312-4-5l-1.582-1.324c-2.01-2.376-1.818-4.106-1.793-7.176l-.023-2.906c.456-2.971 1.189-3.679 3.398-5.594-.178-2.67-1.034-4.05-2.562-6.25-1.983-3.793-1.654-6.504-1.438-10.75l3-1v-2c3.985-3.238 8.023-3.875 13-3M310 460c6.116 2.015 10.49 5.603 14 11v2l2.25-.25c2.75.25 2.75.25 5 1.688 2.48 3.63 2.79 7.211 2.75 11.562l-1 3c-2.062.688-2.062.688-4 1v2l-3.125 1.063c-3.933 1.65-6.045 4.079-8.613 7.414C316 502 316 502 314 503c-5.294.347-8.747.524-13-3-3.187-3.737-3.447-7.105-3.305-11.84.409-2.896 1.528-4.865 3.305-7.16l-1.5-1.812c-2.214-4.706-2.305-9.077-1.5-14.188 3.277-5.064 6.134-5.895 12-5"/><path fill="#F5D3A9" d="M311 290v1l-1.887.062q-9.808.33-19.616.683-3.65.13-7.3.25-5.276.177-10.552.372l-3.244.101c-6.612.254-13.011.975-19.536 2.076-3.886.618-7.75.895-11.678 1.081l-2.134.117A899 899 0 0 1 230 296c2.599-6.577 9.797-10.517 15.96-13.371 22.06-8.25 44.757-3.018 65.04 7.371"/><path fill="#804221" d="M138 375c-.329 5.308-.565 8.785-4 13 .097 3.019 1.094 4.111 3.063 6.438 2.166 2.865 2.336 4.07 1.937 7.562-6.518-.752-6.518-.752-9.187-2.125-1.76-1.033-1.76-1.033-3.688-.75-2.365.883-2.365.883-5.062 2.938-3.147 1.99-4.45 2.362-8.063 1.937-.33-4.728.389-7.083 3-11v-2l-2.375-1.812c-2.826-2.355-3.664-3.692-4.625-7.188v-4c6.223-.244 9.846.564 15 4l.938-1.875C127 376 127 376 128.625 375.375c3.141-.496 6.201-.436 9.375-.375"/><path fill="#662F07" d="M398 208c2.477 1.496 4.75 3.184 7 5-1.353 4.06-3.344 4.921-7 7h-4v2a415 415 0 0 1-4.687 2l-2.637 1.125c-2.777.908-4.778 1.159-7.676.875-2.312-1.625-2.312-1.625-4-4a85 85 0 0 1 0-6q4.049-1.853 8.105-3.687c1.675-.76 3.346-1.527 5.008-2.313 3.45-1.59 6.112-2.755 9.887-2"/><path fill="#663009" d="M427.125 203.75c8.504.549 14.941 5.674 21.875 10.25l-1 5c-4.689-.556-8.2-1.882-12.375-4.062l-3.21-1.66L430 212l-.402 2.266-.536 2.984-.527 2.953c-.439 2.294-.938 4.54-1.535 6.797h-7a337 337 0 0 1-.125-4.75l-.07-2.672c.207-2.739.923-4.185 2.195-6.578.41-2.093.41-2.093.563-4.187.544-4.742.544-4.742 4.562-5.063"/><path fill="#662F07" d="M470 178c1.875 1.688 1.875 1.688 3 4-.24 3.37-.588 4.588-3 7a102 102 0 0 1-4.812 1.875c-3.307 1.247-5.122 2.064-7.75 4.5C455 197 455 197 452.773 196.875c-6.147-1.249-6.147-1.249-8.773-3.875-.125-2.625-.125-2.625 0-5 21.695-11.013 21.695-11.013 26-10"/><path fill="#8B5F3B" d="M381 533c-2.855 1.903-4.42 2.462-7.687 3.125l-2.45.508L369 537v2c-5.622 2.037-11.14 3.534-17.031 4.57-1.962.243-1.962.243-2.969 1.43-20.037 2.933-39.847 1.957-60 1l-1-2 2.56-.06c15.567-.383 30.995-.823 46.44-2.94l3.816-.434c10.882-1.282 21.49-3.607 32-6.683 2.92-.81 5.18-1.065 8.184-.883"/><path fill="#FEA28A" d="M356 468c.368 7.482.368 7.482-1.375 9.938-3.715 2.429-7.28 2.702-11.625 2.062-3-2-3-2-5-4 .363-2.687.669-4.559 2.313-6.75 4.465-3.308 10.616-2.94 15.687-1.25"/><path fill="#FEA38B" d="M338 314c2.98 3.155 3 4.627 3 9-3.752 3.502-7.736 3.353-12.598 3.398-2.847-.472-4.251-1.52-6.402-3.398.27-3.245.826-4.792 2.938-7.312 4.317-2.38 8.235-2.669 13.062-1.688"/><path fill="#FEA48B" d="M340.277 330.047 342 331c.195 6.055.195 6.055 0 8-2 2-2 2-5.062 2.5-5.167-.656-9.306-2.703-12.938-6.5-.254-2.707-.254-2.707 0-5 5.172-2.836 10.998-2.38 16.277.047"/><path fill="#FEA38B" d="M345.813 481.688c4.166.102 7.071.297 10.187 3.312 1.063 2.938 1.063 2.938 1 6-1.625 2.375-1.625 2.375-4 4-4.351.801-7.277-.815-11-3-1.875-1.375-1.875-1.375-3-3-.312-2.562-.312-2.562 0-5 2.49-2.49 3.375-2.297 6.813-2.312"/><path fill="#FCA58B" d="M324 338c2.687 1.433 3.887 2.63 6 5-.125 3.813-.125 3.813-1 7l2 1c-2.75.917-4.36 1.109-7.187 1.063L320 352l1-2-3-2.062c-1.664-1.36-1.664-1.36-3-2.938-.375-3.812-.375-3.812 0-7 3.642-1.214 5.307-1.014 9 0"/><path fill="#FEA48C" d="M328.375 304.625c2.458 2.08 2.356 4.278 2.625 7.375-5.715 2.982-10.568 3.64-17 3-1-1-1-1-1.25-3.875.25-3.125.25-3.125 1.563-4.937 4.21-2.963 9.226-2.836 14.062-1.563"/><path fill="#FEA38B" d="M333.688 491.688c4.148.39 6.11 1.692 9.312 4.312 1.5 1.938 1.5 1.938 2 4-.875 2.75-.875 2.75-2 5-8.05-.19-8.05-.19-11.562-3.187-1.65-3.23-1.845-5.234-1.438-8.813 1-1 1-1 3.688-1.312"/><path fill="#894724" d="M132 389c6.942 6.76 6.942 6.76 7.125 10.688L139 402c-6.518-.752-6.518-.752-9.187-2.125-1.76-1.033-1.76-1.033-3.688-.75-2.365.883-2.365.883-5.062 2.938-3.147 1.99-4.45 2.362-8.063 1.937v-6c4.397-2.136 4.397-2.136 7.5-1.437 2.642.72 2.642.72 5.313-1L128 394l1 3 3-1z"/><path fill="#FEA38B" d="m337 457.75 2.063-.016C341 458 341 458 344 460c.375 2.438.375 2.438 0 5-1.63 2.159-2.495 2.916-5.191 3.363l-2.372-.05-2.378-.012C332 468 332 468 330 466c-.312-3-.312-3 0-6 2.997-1.998 3.633-2.276 7-2.25"/><path fill="#A06E47" d="M471 468h5c0 5.543-5.324 9.157-9 13l-1.834 1.949a708 708 0 0 1-5.978 6.238l-1.958 2.074c-.618.63-1.237 1.259-1.875 1.907l-1.667 1.727L452 496l-4-1 25-25z"/><path fill="#C2771B" d="M360 98c.688 1.625.688 1.625 1 4-1.437 3.25-1.437 3.25-3 6h-2l-.29 1.832c-.868 2.65-1.794 3.323-4.085 4.856l-1.836 1.261c-3.035 1.783-5.536 2.17-8.976 2.114L337 118v-1l2.188-.187c3.646-1.054 5.198-3.13 7.812-5.813h5l1-3h2v-4c1.375-1.562 1.375-1.562 3-3z"/><path fill="#7C420C" d="M101 289c1.512 1.309 1.512 1.309 3 3-.152 2.486-.48 4.585-1 7l-.453 2.574c-1.269 7.009-1.269 7.009-3.547 10.426a177 177 0 0 0-2 4c-.728-9.55 1.443-17.902 4-27"/><path fill="#744624" d="M369 537v2c-10.335 3.745-19.01 5.546-30 4v-1a2542.828 2542.828 0 0 0 10.125-1.375l2.883-.383c5.66-.786 11.405-3.242 16.992-3.242"/><path fill="#C77A1C" d="M270 130v1c-8.343 1.192-16.593 1.093-25 1v-1q3.091-.759 6.188-1.5l3.48-.844c5.761-1.134 9.731-.413 15.332 1.344"/><path fill="#693617" d="m111 379 7 1-1 2a62 62 0 0 0-.062 4.125L117 390c-2.867-.573-3.861-.861-6-3-.27-2.688-.087-5.291 0-8"/><path fill="#DC8B20" d="m129 124 2 1-20 20-2-1c5.213-5.907 10.358-11.59 16.406-16.66 1.71-1.398 1.71-1.398 3.594-3.34"/><path fill="#805330" d="m461 484 2 1a492 492 0 0 1-5.25 5.563l-1.488 1.615c-1.465 1.513-1.465 1.513-4.262 3.822-2.36-.16-2.36-.16-4-1q2.398-2.477 4.813-4.937l2.707-2.778C458 485 458 485 461 484"/><path fill="#8A4D0F" d="M540 320h1v10h-2v12h-1a836 836 0 0 1-.125-7.625l-.05-2.16c-.042-4.476.484-7.994 2.175-12.215"/><path fill="#4A8E6C" d="m131 235 2 2c-.257 3.875-2.51 5.996-5.062 8.75l-2.223 2.422L124 250l-1-2c1.398-2.531 1.398-2.531 3.375-5.5 2.467-3.661 2.467-3.661 4.625-7.5"/><path fill="#73361C" d="m121 391 3 1-1 6-5-1v-4h3z"/><path fill="#814420" d="M131 375h7l-1 9h-4l-1-3h3l1-5h-5z"/><path fill="#CF811E" d="M99 308h1c.083 4.833-.047 9.237-1 14l-1-2h-2v-8h2z"/><path fill="#E08D21" d="m346 111 2 1-1 4h-2v2h-8v-1l2.25-.187c3.569-1.055 4.672-2.812 6.75-5.813"/><path fill="#6F381B" d="m124 382 3 1c-.312 1.938-.312 1.938-1 4-3 1-3 1-6 0 1-3 1-3 4-5"/><path fill="#5F2E12" d="M131 376h5l-1 5-6-1z"/><path fill="#7A4C2A" d="M353 541c-1.145 1.52-1.145 1.52-3 3-2.7.074-2.7.074-5.687-.312l-3.012-.364L339 543v-1c9.41-1.148 9.41-1.148 14-1"/><path fill="#74371D" d="m130 392 3 1-1 4h-4c.875-3.875.875-3.875 2-5"/><path fill="#4A9A7C" d="m528 175 2 1c-1.964 1.506-3.783 2.891-6 4-1.134 2.017-1.134 2.017-2 4l-1-6a136 136 0 0 1 7-3"/><path fill="#D4841F" d="M360 98c.625 1.813.625 1.813 1 4l-2 3h-2v2h-2c0-3 0-3 1.375-4.5L358 101z"/><path fill="#8F633F" d="M410 520v2c-6.964 3.348-6.964 3.348-11 2a875 875 0 0 1 4.375-2l2.46-1.125C408 520 408 520 410 520"/><path fill="#4A9371" d="m466 495 2 1-7 7-3-1z"/><path fill="#9D714D" d="M471 475c-1 3-1 3-2.812 4.063L466 480q-2.005.992-4 2a271 271 0 0 1 2.813-3.5l1.582-1.969C468 475 468 475 471 475"/><path fill="#505537" d="M67 185c.621 1.797.621 1.797 1 4-1.937 3.25-1.937 3.25-4 6l-1-2c.777-1.945.777-1.945 1.938-4.125l1.152-2.195z"/><path fill="#975428" d="m127 394 3 4c-2.308 1.154-4.472 1.534-7 2v-3c2-1.687 2-1.687 4-3"/></svg>